<svg xmlns="http://www.w3.org/2000/svg" width="132" height="37">
  <path d="M19.592 34.137a1.09 1.09 0 011.023 1.149 1.081 1.081 0 01-1.136 1.026 1.087 1.087 0 01-1.02-1.145c.032-.6.539-1.06 1.133-1.03zm-10.04-.153a.852.852 0 011.548.294.853.853 0 11-1.549-.294zm19.08-.335a.852.852 0 011.195 1.03.846.846 0 01-.426.494.851.851 0 01-1.195-1.029.852.852 0 01.426-.495zm-17.02-4.2a1.32 1.32 0 012.395.456 1.318 1.318 0 11-2.583.54 1.331 1.331 0 01.189-.995zm14.34-.483a1.319 1.319 0 011.846 1.597 1.316 1.316 0 01-2.43.179 1.323 1.323 0 01.585-1.776zm-6.488-1.68h.14a1.558 1.558 0 011.462 1.642 1.55 1.55 0 01-1.625 1.469 1.554 1.554 0 01-1.458-1.638 1.549 1.549 0 011.621-1.473zm79.704-6.13c2.356 0 3.484 1.014 3.484 2.76v4.173a.543.543 0 00.581.582h.532v1.363a3.013 3.013 0 01-1.245.25 1.592 1.592 0 01-1.659-1.182h-.116a3.325 3.325 0 01-2.787 1.197c-.999.002-2.774-.33-2.774-2.46 0-2.377 2.273-3.042 5.475-3.042v-.731c0-.748-.267-1.33-1.49-1.33-1.278 0-1.61.515-1.61.98v.233h-1.924a2.244 2.244 0 01-.017-.366c0-1.513 1.427-2.427 3.55-2.427zm-30.856.2v5.554c0 1.247.613 1.665 1.609 1.665a1.982 1.982 0 001.43-.64c.37-.403.561-.94.527-1.488v-5.088h1.99v8.745h-1.642l-.166-1.164h-.116a3.37 3.37 0 01-2.803 1.364c-1.676-.003-2.82-.817-2.82-3.045v-5.903h1.99zm38.849-2.445v2.445h1.49v1.63h-1.49v4.937c-.03.2.033.405.173.551.14.147.34.22.54.197h.78v1.363a4.317 4.317 0 01-1.394.269c-1.609-.002-2.09-1.1-2.09-2.18v-5.138h-1.061v-1.63h1.094l.365-2.444h1.593zm-13.65-.83V30.1H91.87l-.166-1.164h-.1a3.035 3.035 0 01-2.67 1.364c-2.142 0-3.486-1.397-3.486-4.59 0-3.142 1.41-4.555 3.353-4.555a2.913 2.913 0 012.622 1.214h.1v-4.29h1.99zm24.799 3.075c2.853 0 4.296 1.43 4.296 4.573 0 3.142-1.443 4.572-4.296 4.572-2.854 0-4.297-1.43-4.297-4.572 0-3.143 1.444-4.573 4.297-4.573zm-58.01 0c2.853 0 4.296 1.43 4.296 4.573 0 3.142-1.443 4.572-4.296 4.572-2.854 0-4.297-1.43-4.297-4.572 0-3.143 1.443-4.573 4.297-4.573zm51.953.2v8.746h-1.99v-8.745h1.99zm-56.814-2.66v1.81h-6.054V23.6h5.457v1.813h-5.457V30.1H47.26V18.696h8.178zm25.48 2.46c1.66 0 2.821.815 2.821 3.043v5.9h-1.99v-5.551c0-1.247-.614-1.665-1.61-1.665a1.978 1.978 0 00-1.43.64c-.37.403-.561.94-.527 1.489v5.087H76.19v-8.743h1.643L78 22.519h.116a3.372 3.372 0 012.803-1.363zm48.189 0c1.659 0 2.82.815 2.82 3.043v5.9h-1.99v-5.551c0-1.247-.614-1.665-1.609-1.665a1.979 1.979 0 00-1.431.64c-.37.403-.56.94-.527 1.489v5.087h-1.99l-.002-8.743h1.643l.166 1.163h.116a3.372 3.372 0 012.804-1.363zm-28.45 5.055c-1.89 0-3.433.268-3.433 1.43 0 .698.448 1.064 1.327 1.064a1.933 1.933 0 001.534-.557c.406-.403.615-.966.573-1.54v-.397zm17.652-3.425c-1.61 0-2.24.931-2.24 2.827v.232c0 1.896.63 2.827 2.24 2.827 1.59 0 2.237-.931 2.237-2.827h.003v-.232c0-1.896-.648-2.827-2.24-2.827zm-58.01 0c-1.61 0-2.24.931-2.24 2.827v.232c0 1.896.63 2.827 2.24 2.827 1.592 0 2.24-.931 2.24-2.827v-.232c0-1.896-.648-2.827-2.24-2.827zm29.228.083c-1.477 0-2.023.865-2.023 2.76v.215c0 1.88.533 2.744 2.023 2.744 1.41 0 1.99-.98 1.99-2.743v-.2c0-1.778-.597-2.776-1.99-2.776zM4.387 25.751a1.085 1.085 0 011.458.483 1.093 1.093 0 01-.478 1.462 1.087 1.087 0 01-1.521-1.315c.09-.274.284-.5.54-.63zm29.076.31a1.084 1.084 0 011.972.374 1.086 1.086 0 11-2.127.445 1.093 1.093 0 01.155-.82zm-19.165-3.947a2.636 2.636 0 014.792.911 2.65 2.65 0 01-.376 1.991 2.636 2.636 0 01-3.656.762 2.636 2.636 0 01-1.137-1.672 2.658 2.658 0 01.377-1.992zm8.428-1.21a2.63 2.63 0 012.36 1.457c.314.627.367 1.355.148 2.022a2.637 2.637 0 01-2.504 1.816 2.627 2.627 0 01-2.568-2.029 2.643 2.643 0 012.564-3.266zM9.688 22.13a1.55 1.55 0 012.084.69c.185.368.216.797.087 1.189a1.55 1.55 0 01-2.859.21 1.559 1.559 0 01.688-2.089zm17.861.496a1.55 1.55 0 012.149-.448c.344.224.585.578.669.983a1.56 1.56 0 01-.222 1.17 1.55 1.55 0 01-2.817-.534 1.563 1.563 0 01.221-1.171zm-14.262-7.102h.17c1.426.052 2.55 1.244 2.53 2.684-.02 1.44-1.177 2.6-2.604 2.61-.05 0-.099-.002-.152-.005-1.45-.08-2.562-1.329-2.486-2.792a2.632 2.632 0 012.712-2.496zm12.505-.026l.186.004a2.613 2.613 0 011.82.88c.468.52.708 1.21.666 1.912a2.643 2.643 0 01-2.634 2.496c-.05 0-.099-.002-.152-.004a2.624 2.624 0 01-2.192-1.453 2.668 2.668 0 01.15-2.642 2.618 2.618 0 012.342-1.19zm86.428 2.583v1.962h-1.957V18.08h1.957zM5.848 16.867c.725.04 1.28.665 1.242 1.396a1.315 1.315 0 01-1.38 1.245 1.318 1.318 0 01-1.237-1.39 1.315 1.315 0 011.375-1.251zm26.714.254c.4-.358.974-.437 1.454-.2s.772.742.738 1.28c-.02.352-.18.68-.44.914a1.308 1.308 0 01-.952.332 1.322 1.322 0 01-1.172-.893 1.34 1.34 0 01.372-1.433zm-31.66.223l.106.012c.415.076.72.454.697.89a.85.85 0 01-.892.807.852.852 0 01-.8-.9.852.852 0 01.889-.81zm37.503-.082a.856.856 0 01-.09 1.709.852.852 0 01-.8-.9.852.852 0 01.89-.809zM16.48 10.115a2.623 2.623 0 012.568 2.028 2.643 2.643 0 01-2.564 3.266 2.629 2.629 0 01-2.36-1.456c-.313-.628-.367-1.356-.147-2.023a2.634 2.634 0 012.503-1.815zm4.018 1.181a2.637 2.637 0 014.791.911 2.657 2.657 0 01-.375 1.992 2.637 2.637 0 01-4.792-.911 2.658 2.658 0 01.376-1.992zm42.058-5.319c2.356 0 3.484 1.015 3.484 2.76v4.174a.544.544 0 00.157.426c.112.112.267.17.424.156h.532v1.363c-.393.17-.817.256-1.245.25a1.592 1.592 0 01-1.659-1.182h-.116a3.328 3.328 0 01-2.787 1.197c-.998 0-2.771-.332-2.771-2.46 0-2.377 2.273-3.042 5.474-3.042v-.732c0-.748-.266-1.33-1.493-1.33-1.277 0-1.609.516-1.609.981v.233h-1.924a2.492 2.492 0 01-.017-.366c0-1.513 1.427-2.428 3.55-2.428zm25.18 0c2.357 0 3.484 1.015 3.484 2.76v4.174a.548.548 0 00.157.426c.112.112.267.17.424.156h.532v1.363c-.392.17-.816.256-1.244.25a1.593 1.593 0 01-1.66-1.182h-.115a3.33 3.33 0 01-2.787 1.197c-.996 0-2.771-.332-2.771-2.46 0-2.377 2.272-3.042 5.474-3.042v-.732c0-.748-.266-1.33-1.493-1.33-1.278 0-1.61.516-1.61.981v.233h-1.924a2.36 2.36 0 01-.016-.366c0-1.513 1.427-2.428 3.55-2.428zm-5.653-3.076v12.02H80.44l-.166-1.163h-.1a3.035 3.035 0 01-2.67 1.363c-2.143 0-3.487-1.396-3.487-4.589 0-3.142 1.41-4.555 3.354-4.555a2.907 2.907 0 012.62 1.214h.1V2.9h1.99zm25.112 3.076c2.854 0 4.297 1.43 4.297 4.572 0 3.143-1.443 4.572-4.297 4.572-2.853 0-4.296-1.43-4.296-4.572 0-3.142 1.443-4.572 4.296-4.572zm-54.873-2.66c2.837 0 5.027 1.43 5.027 4.404h-2.174c0-1.696-1.161-2.61-2.82-2.61-2.29 0-3.368 1.33-3.368 3.94v.333c0 2.66 1.062 3.94 3.367 3.94 1.757 0 2.903-.913 2.903-2.578h2.09c0 2.976-2.156 4.373-5.026 4.373-3.483.002-5.507-1.793-5.507-5.9 0-4.007 2.023-5.902 5.508-5.902zm20.021 2.66c.284-.002.565.05.83.15v1.88h-.631c-1.36 0-2.107.748-2.107 2.363v4.555h-1.99V6.176h1.642l.183 1.38h.116c.315-.831.863-1.58 1.957-1.58zm26.01 0c1.66 0 2.822.814 2.822 3.042v5.903h-1.99V9.368c0-1.247-.615-1.665-1.61-1.665a1.979 1.979 0 00-1.431.64c-.37.403-.56.94-.527 1.489v5.087h-1.99l-.001-8.743h1.642l.166 1.164h.116a3.373 3.373 0 012.804-1.364zM9.066 11.981a1.549 1.549 0 012.816.536c.084.404.004.825-.221 1.17a1.55 1.55 0 01-2.817-.535 1.556 1.556 0 01.222-1.17zm19.06-.576a1.55 1.55 0 012.172 1.878 1.55 1.55 0 01-2.859.21 1.556 1.556 0 01.688-2.088zm35.923-.374c-1.89 0-3.434.269-3.434 1.43 0 .698.448 1.064 1.327 1.064a1.936 1.936 0 001.534-.556c.405-.404.615-.966.573-1.54v-.398zm25.18 0c-1.89 0-3.433.269-3.433 1.43 0 .698.447 1.064 1.327 1.064a1.933 1.933 0 001.533-.556c.406-.404.616-.966.574-1.54v-.398zm17.967-3.426c-1.61 0-2.24.931-2.24 2.827v.233c0 1.895.63 2.826 2.24 2.826 1.592 0 2.239-.93 2.239-2.826v-.233c0-1.895-.647-2.827-2.24-2.827zm-29.097.084c-1.476 0-2.022.864-2.022 2.76v.215c0 1.88.532 2.743 2.022 2.743 1.41 0 1.991-.98 1.991-2.742v-.2c0-1.778-.597-2.776-1.99-2.776zM3.931 9.058a1.085 1.085 0 011.971.374 1.088 1.088 0 01-1.659 1.133 1.09 1.09 0 01-.312-1.507zm29.912-.441a1.084 1.084 0 011.458.483 1.093 1.093 0 01-.478 1.462 1.087 1.087 0 01-1.522-1.315c.09-.274.285-.501.542-.63zM19.516 5.914l.14.002c.85.046 1.503.779 1.458 1.637a1.548 1.548 0 01-1.62 1.473 1.556 1.556 0 01-1.462-1.64 1.548 1.548 0 011.624-1.47zm-7.448-.929a1.32 1.32 0 011.847 1.596c-.11.334-.347.61-.66.765-.65.33-1.441.069-1.772-.585a1.33 1.33 0 01-.074-1.011c.11-.333.347-.609.66-.765zm13.322.425a1.316 1.316 0 011.827-.38c.292.19.497.491.568.835a1.318 1.318 0 11-2.583.541 1.333 1.333 0 01.188-.996zM9.808 1.14a.852.852 0 011.195 1.029.852.852 0 01-1.572.12.86.86 0 01.377-1.149zm18.423.25a.853.853 0 011.549.294.854.854 0 11-1.549-.294zM19.618.001c.594.033 1.05.545 1.019 1.144-.031.6-.537 1.06-1.131 1.03a1.09 1.09 0 01.112-2.174z" fill="#FFF" fill-rule="nonzero"/>
</svg>
